<svg width="100" height="125" viewBox="0 0 100 125" fill="none" xmlns="http://www.w3.org/2000/svg">
<g clip-path="url(#clip0)">
<path d="M65.2463 61.68C65.2463 59.4789 62.5705 57.9684 58.8589 57.1053C58.6 56.0263 58.1684 54.9474 57.5211 53.9979C57.9526 52.7463 58.2116 51.1495 58.2116 49.5526C58.2116 45.9274 56.96 42 54.1979 42C51.4358 42 50.1842 45.9274 50.1842 49.5526C50.1842 49.6821 50.1842 49.8116 50.1842 49.8979C49.7958 49.8547 49.4074 49.8547 49.0189 49.8979C49.0189 49.7684 49.0189 49.6389 49.0189 49.5526C49.0189 45.9274 47.7674 42 45.0053 42C42.2432 42 40.9916 45.9274 40.9916 49.5526C40.9916 51.1495 41.2505 52.7032 41.6821 53.9547C41.0347 54.9042 40.56 55.9832 40.3442 57.0621C36.6758 57.9684 34 59.4789 34 61.68C34 63.5358 35.8558 64.8737 38.6611 65.78L36.1579 80.6263C36.0716 81.2305 36.46 81.8347 37.0642 81.9211C40.8621 82.6116 45.1779 83 49.6232 83C54.0684 83 58.4274 82.6116 62.1821 81.9211C62.7863 81.7916 63.2179 81.2305 63.0884 80.6263L60.5853 65.78C63.3905 64.8305 65.2463 63.4926 65.2463 61.68ZM60.6716 79.8926C53.8958 80.9716 45.3505 80.9716 38.5747 79.8926L40.8621 66.3842C43.4947 66.9884 46.6021 67.2474 49.6663 67.2474C52.7305 67.2474 55.7947 66.9453 58.4705 66.3842L60.6716 79.8926ZM49.6232 64.96C40.8189 64.96 36.2442 62.6295 36.2442 61.68C36.2442 61.1621 37.5821 60.2558 40.1716 59.5221C40.2147 60.1695 40.3011 60.86 40.5168 61.4642C40.6895 61.9389 41.1211 62.2411 41.5958 62.2411C41.7253 62.2411 41.8116 62.2411 41.9411 62.1979C42.5453 62.0253 42.8905 61.3779 42.6747 60.7737C42.5021 60.1695 42.3726 59.5653 42.3726 58.9179C42.3726 57.4505 42.8905 56.0263 43.84 54.8611C44.0989 54.5158 44.1853 54.0842 44.0126 53.6958C43.5379 52.66 43.2789 51.1063 43.2789 49.5526C43.2789 46.4021 44.3147 44.2874 45.0053 44.2874C45.6958 44.2874 46.7316 46.4021 46.7316 49.5526C46.7316 50.0705 46.6884 50.5884 46.6453 51.1063C46.6021 51.4516 46.7316 51.84 46.9905 52.0558C47.2495 52.3147 47.6379 52.4011 47.9832 52.3147C49.1053 52.0989 50.0116 52.0989 51.1337 52.3147C51.4789 52.4011 51.8674 52.2716 52.1263 52.0558C52.3853 51.7968 52.5147 51.4516 52.4716 51.0632C52.4284 50.5453 52.3853 50.0274 52.3853 49.5095C52.3853 46.3589 53.4211 44.2442 54.1116 44.2442C54.8021 44.2442 55.8379 46.3589 55.8379 49.5095C55.8379 51.0632 55.5358 52.5737 55.1042 53.6526C54.9316 54.0411 54.9747 54.5158 55.2768 54.8179C56.2695 56.0263 56.7442 57.4074 56.7442 58.8747C56.7442 59.4789 56.6579 60.1263 56.4421 60.7305C56.2695 61.3347 56.5716 61.9821 57.1758 62.1547C57.78 62.3274 58.4274 62.0253 58.6 61.4211C58.8158 60.7737 58.9021 60.1263 58.9453 59.4789C61.5347 60.2126 62.8726 61.1189 62.8726 61.6368C63.0021 62.6295 58.4274 64.96 49.6232 64.96Z" fill="black" fill-opacity="0.2"/>
<path d="M46.8179 58.8315C47.6998 58.8315 48.4147 58.1166 48.4147 57.2347C48.4147 56.3527 47.6998 55.6378 46.8179 55.6378C45.936 55.6378 45.221 56.3527 45.221 57.2347C45.221 58.1166 45.936 58.8315 46.8179 58.8315Z" fill="black" fill-opacity="0.2"/>
<path d="M52.4284 58.8315C53.3104 58.8315 54.0253 58.1166 54.0253 57.2347C54.0253 56.3527 53.3104 55.6378 52.4284 55.6378C51.5465 55.6378 50.8316 56.3527 50.8316 57.2347C50.8316 58.1166 51.5465 58.8315 52.4284 58.8315Z" fill="black" fill-opacity="0.2"/>
<path d="M50.6158 59.9105H48.6305C48.0263 59.9105 47.7242 60.601 48.0695 61.0758L49.0621 62.3705C49.3642 62.7589 49.9253 62.7589 50.1842 62.3705L51.1768 61.0758C51.5653 60.601 51.22 59.9105 50.6158 59.9105Z" fill="black" fill-opacity="0.2"/>
</g>
<defs>
<clipPath id="clip0">
<rect width="100" height="125" fill="white"/>
</clipPath>
</defs>
</svg>
